<svg width="32" height="29" viewBox="0 0 32 29" fill="none" xmlns="http://www.w3.org/2000/svg">
<path d="M26.6663 4.30566H5.33301C4.27214 4.30566 3.25473 4.66501 2.50458 5.30465C1.75444 5.9443 1.33301 6.81184 1.33301 7.71643V21.3595C1.33301 22.2641 1.75444 23.1316 2.50458 23.7713C3.25473 24.4109 4.27214 24.7702 5.33301 24.7702H26.6663C27.7272 24.7702 28.7446 24.4109 29.4948 23.7713C30.2449 23.1316 30.6663 22.2641 30.6663 21.3595V7.71643C30.6663 6.81184 30.2449 5.9443 29.4948 5.30465C28.7446 4.66501 27.7272 4.30566 26.6663 4.30566ZM27.9997 21.3595C27.9997 21.661 27.8592 21.9502 27.6092 22.1634C27.3591 22.3766 27.02 22.4964 26.6663 22.4964H5.33301C4.97939 22.4964 4.64025 22.3766 4.3902 22.1634C4.14015 21.9502 3.99967 21.661 3.99967 21.3595V7.71643C3.99967 7.4149 4.14015 7.12572 4.3902 6.9125C4.64025 6.69929 4.97939 6.57951 5.33301 6.57951H26.6663C27.02 6.57951 27.3591 6.69929 27.6092 6.9125C27.8592 7.12572 27.9997 7.4149 27.9997 7.71643V21.3595Z" fill="#6EC51E"/>
<path d="M10.6663 13.4014C10.3127 13.4014 9.97357 13.5211 9.72353 13.7344C9.47348 13.9476 9.33301 14.2368 9.33301 14.5383V19.086C9.33301 19.3875 9.47348 19.6767 9.72353 19.8899C9.97357 20.1031 10.3127 20.2229 10.6663 20.2229C11.0199 20.2229 11.3591 20.1031 11.6091 19.8899C11.8592 19.6767 11.9996 19.3875 11.9996 19.086V14.5383C11.9996 14.2368 11.8592 13.9476 11.6091 13.7344C11.3591 13.5211 11.0199 13.4014 10.6663 13.4014Z" fill="#6EC51E"/>
<path d="M16.0004 11.1272C15.6467 11.1272 15.3076 11.247 15.0575 11.4602C14.8075 11.6734 14.667 11.9626 14.667 12.2641V19.0856C14.667 19.3871 14.8075 19.6763 15.0575 19.8895C15.3076 20.1027 15.6467 20.2225 16.0004 20.2225C16.354 20.2225 16.6932 20.1027 16.9432 19.8895C17.1933 19.6763 17.3338 19.3871 17.3338 19.0856V12.2641C17.3338 11.9626 17.1933 11.6734 16.9432 11.4602C16.6932 11.247 16.354 11.1272 16.0004 11.1272Z" fill="#6EC51E"/>
<path d="M21.3334 8.85303C20.9797 8.85303 20.6406 8.97281 20.3905 9.18602C20.1405 9.39924 20 9.68842 20 9.98995V19.0853C20 19.3868 20.1405 19.676 20.3905 19.8892C20.6406 20.1025 20.9797 20.2222 21.3334 20.2222C21.687 20.2222 22.0262 20.1025 22.2762 19.8892C22.5263 19.676 22.6668 19.3868 22.6668 19.0853V9.98995C22.6668 9.68842 22.5263 9.39924 22.2762 9.18602C22.0262 8.97281 21.687 8.85303 21.3334 8.85303Z" fill="#6EC51E"/>
</svg>
