<svg width="33" height="33" viewBox="0 0 33 33" fill="none" xmlns="http://www.w3.org/2000/svg" > <path d="M16.5 6.875L15.7929 6.16789L16.5 5.46079L17.2071 6.16789L16.5 6.875ZM17.5 19.25C17.5 19.8023 17.0523 20.25 16.5 20.25C15.9477 20.25 15.5 19.8023 15.5 19.25L17.5 19.25ZM8.91789 13.0429L15.7929 6.16789L17.2071 7.58211L10.3321 14.4571L8.91789 13.0429ZM17.2071 6.16789L24.0821 13.0429L22.6679 14.4571L15.7929 7.58211L17.2071 6.16789ZM17.5 6.875L17.5 19.25L15.5 19.25L15.5 6.875L17.5 6.875Z" fill="black" /> <path d="M6.875 22L6.875 23.375C6.875 24.8938 8.10622 26.125 9.625 26.125L23.375 26.125C24.8938 26.125 26.125 24.8938 26.125 23.375V22" stroke="black" stroke-width="2" /> </svg>