<svg width="34" height="34" viewBox="0 0 34 34" fill="none" xmlns="http://www.w3.org/2000/svg"><rect width="34" height="34" rx="17" fill="#DAF17E"/><path fill-rule="evenodd" clip-rule="evenodd" d="M14.75 10.25C15.9926 10.25 17 11.2574 17 12.5C17 13.7426 15.9926 14.75 14.75 14.75C13.5074 14.75 12.5 13.7426 12.5 12.5C12.5 11.2574 13.5074 10.25 14.75 10.25ZM18.125 12.5C18.125 10.636 16.614 9.125 14.75 9.125C12.886 9.125 11.375 10.636 11.375 12.5C11.375 14.364 12.886 15.875 14.75 15.875C16.614 15.875 18.125 14.364 18.125 12.5Z" fill="#212738"/><path fill-rule="evenodd" clip-rule="evenodd" d="M20.9375 15.875C21.8695 15.875 22.625 16.6305 22.625 17.5625C22.625 18.4945 21.8695 19.25 20.9375 19.25C20.0055 19.25 19.25 18.4945 19.25 17.5625C19.25 16.6305 20.0055 15.875 20.9375 15.875ZM23.75 17.5625C23.75 16.0092 22.4908 14.75 20.9375 14.75C19.3842 14.75 18.125 16.0092 18.125 17.5625C18.125 19.1158 19.3842 20.375 20.9375 20.375C22.4908 20.375 23.75 19.1158 23.75 17.5625Z" fill="#212738"/><path d="M20.9375 18.125C20.6268 18.125 20.375 17.8732 20.375 17.5625C20.375 17.2518 20.6268 17 20.9375 17C21.2482 17 21.5 17.2518 21.5 17.5625C21.5 17.8732 21.2482 18.125 20.9375 18.125Z" fill="#212738"/><path fill-rule="evenodd" clip-rule="evenodd" d="M13.9923 17.0349C13.7716 17.1166 13.625 17.3271 13.625 17.5625V23.75C13.625 24.0607 13.8768 24.3125 14.1875 24.3125C14.4982 24.3125 14.75 24.0607 14.75 23.75V19.0831L17.1354 21.8661C17.2423 21.9907 17.3983 22.0625 17.5625 22.0625C17.7267 22.0625 17.8827 21.9907 17.9896 21.8661L19.6771 19.8973C19.8793 19.6614 19.8519 19.3063 19.6161 19.1042C19.3802 18.902 19.0251 18.9293 18.8229 19.1652L17.5625 20.6357L14.6146 17.1964C14.4614 17.0177 14.2131 16.9533 13.9923 17.0349Z" fill="#212738"/></svg>