<svg width="34" height="34" viewBox="0 0 34 34" fill="none" xmlns="http://www.w3.org/2000/svg"><rect width="34" height="34" rx="17" fill="#DAF17E"/><path fill-rule="evenodd" clip-rule="evenodd" d="M15.3125 17.5625C15.3125 16.6305 16.068 15.875 17 15.875C17.932 15.875 18.6875 16.6305 18.6875 17.5625C18.6875 18.4945 17.932 19.25 17 19.25C16.068 19.25 15.3125 18.4945 15.3125 17.5625ZM17 14.75C15.4467 14.75 14.1875 16.0092 14.1875 17.5625C14.1875 19.1158 15.4467 20.375 17 20.375C18.5533 20.375 19.8125 19.1158 19.8125 17.5625C19.8125 16.0092 18.5533 14.75 17 14.75Z" fill="#212738"/><path fill-rule="evenodd" clip-rule="evenodd" d="M16.4375 19.8125C16.4375 20.1232 16.6893 20.375 17 20.375C19.324 20.375 20.8627 19.9131 21.7202 18.5055C22.1276 17.8368 22.3472 17.0042 22.4703 16.0265C22.5937 15.0466 22.625 13.8741 22.625 12.5C22.625 12.1893 22.3732 11.9375 22.0625 11.9375C21.7518 11.9375 21.5 12.1893 21.5 12.5C21.5 13.8681 21.4681 14.9808 21.3541 15.886C21.2399 16.7937 21.0482 17.4464 20.7595 17.9202C20.2248 18.7979 19.2323 19.25 17 19.25C16.6893 19.25 16.4375 19.5018 16.4375 19.8125Z" fill="#212738"/><path fill-rule="evenodd" clip-rule="evenodd" d="M17.5625 19.8125C17.5625 20.1232 17.3107 20.375 17 20.375C14.676 20.375 13.1373 19.9131 12.2798 18.5055C11.8724 17.8368 11.6528 17.0042 11.5297 16.0265C11.4063 15.0466 11.375 13.8741 11.375 12.5C11.375 12.1893 11.6268 11.9375 11.9375 11.9375C12.2482 11.9375 12.5 12.1893 12.5 12.5C12.5 13.8681 12.5319 14.9808 12.6459 15.886C12.7601 16.7937 12.9518 17.4464 13.2405 17.9202C13.7752 18.7979 14.7677 19.25 17 19.25C17.3107 19.25 17.5625 19.5018 17.5625 19.8125Z" fill="#212738"/><path fill-rule="evenodd" clip-rule="evenodd" d="M10.4148 21.1023C10.3093 21.2077 10.25 21.3508 10.25 21.5V23.75C10.25 24.0607 10.5018 24.3125 10.8125 24.3125C11.1232 24.3125 11.375 24.0607 11.375 23.75V22.0625L22.625 22.0625V23.75C22.625 24.0607 22.8768 24.3125 23.1875 24.3125C23.4982 24.3125 23.75 24.0607 23.75 23.75V21.5C23.75 21.3508 23.6907 21.2077 23.5852 21.1023C23.4798 20.9968 23.3367 20.9375 23.1875 20.9375H10.8125C10.6633 20.9375 10.5202 20.9968 10.4148 21.1023Z" fill="#212738"/><path fill-rule="evenodd" clip-rule="evenodd" d="M8 12.5C8 12.1893 8.25184 11.9375 8.5625 11.9375L25.4375 11.9375C25.7482 11.9375 26 12.1893 26 12.5C26 12.8107 25.7482 13.0625 25.4375 13.0625L8.5625 13.0625C8.25184 13.0625 8 12.8107 8 12.5Z" fill="#212738"/><path fill-rule="evenodd" clip-rule="evenodd" d="M10.25 9.6875L10.25 15.3125C10.25 15.6232 9.99816 15.875 9.6875 15.875C9.37684 15.875 9.125 15.6232 9.125 15.3125L9.125 9.6875C9.125 9.37684 9.37684 9.125 9.6875 9.125C9.99816 9.125 10.25 9.37684 10.25 9.6875Z" fill="#212738"/><path fill-rule="evenodd" clip-rule="evenodd" d="M24.875 9.6875L24.875 15.3125C24.875 15.6232 24.6232 15.875 24.3125 15.875C24.0018 15.875 23.75 15.6232 23.75 15.3125L23.75 9.6875C23.75 9.37684 24.0018 9.125 24.3125 9.125C24.6232 9.125 24.875 9.37684 24.875 9.6875Z" fill="#212738"/></svg>