<svg width="34" height="34" viewBox="0 0 34 34" fill="none" xmlns="http://www.w3.org/2000/svg"><rect width="34" height="34" rx="17" fill="#CEE9FF"/><path d="M19.5313 13.625C19.9206 13.625 20.3013 13.5095 20.625 13.2932C20.9488 13.0769 21.2011 12.7694 21.3501 12.4097C21.4991 12.0499 21.5381 11.6541 21.4622 11.2722C21.3862 10.8903 21.1987 10.5395 20.9234 10.2641C20.648 9.9888 20.2972 9.80129 19.9153 9.72533C19.5334 9.64937 19.1376 9.68835 18.7778 9.83736C18.4181 9.98637 18.1106 10.2387 17.8943 10.5625C17.678 10.8862 17.5625 11.2669 17.5625 11.6563C17.5625 12.1784 17.7699 12.6792 18.1391 13.0484C18.5083 13.4176 19.0091 13.625 19.5313 13.625ZM19.5313 10.8125C19.6981 10.8125 19.8613 10.862 20 10.9547C20.1388 11.0474 20.2469 11.1792 20.3108 11.3334C20.3746 11.4875 20.3913 11.6572 20.3588 11.8209C20.3262 11.9845 20.2459 12.1349 20.1279 12.2529C20.0099 12.3709 19.8595 12.4512 19.6959 12.4838C19.5322 12.5163 19.3625 12.4996 19.2084 12.4358C19.0542 12.3719 18.9224 12.2638 18.8297 12.125C18.737 11.9863 18.6875 11.8231 18.6875 11.6563C18.6875 11.4325 18.7764 11.2179 18.9346 11.0596C19.0929 10.9014 19.3075 10.8125 19.5313 10.8125ZM22.0625 17.5625C21.5062 17.5625 20.9625 17.7275 20.5 18.0365C20.0374 18.3455 19.677 18.7848 19.4641 19.2987C19.2512 19.8126 19.1955 20.3781 19.304 20.9237C19.4126 21.4693 19.6804 21.9704 20.0738 22.3637C20.4671 22.7571 20.9682 23.0249 21.5138 23.1335C22.0594 23.242 22.6249 23.1863 23.1388 22.9734C23.6527 22.7605 24.092 22.4001 24.401 21.9375C24.7101 21.475 24.875 20.9313 24.875 20.375C24.875 19.6291 24.5787 18.9137 24.0512 18.3863C23.5238 17.8588 22.8084 17.5625 22.0625 17.5625ZM22.0625 22.0625C21.7287 22.0625 21.4025 21.9635 21.125 21.7781C20.8475 21.5927 20.6312 21.3291 20.5035 21.0208C20.3757 20.7124 20.3423 20.3731 20.4074 20.0458C20.4725 19.7184 20.6333 19.4178 20.8693 19.1818C21.1053 18.9458 21.4059 18.785 21.7333 18.7199C22.0606 18.6548 22.3999 18.6882 22.7083 18.816C23.0166 18.9437 23.2802 19.16 23.4656 19.4375C23.651 19.715 23.75 20.0412 23.75 20.375C23.75 20.8226 23.5722 21.2518 23.2557 21.5682C22.9393 21.8847 22.5101 22.0625 22.0625 22.0625ZM11.9375 17.5625C11.3812 17.5625 10.8375 17.7275 10.375 18.0365C9.91245 18.3455 9.55196 18.7848 9.33909 19.2987C9.12622 19.8126 9.07052 20.3781 9.17904 20.9237C9.28756 21.4693 9.55543 21.9704 9.94876 22.3637C10.3421 22.7571 10.8432 23.0249 11.3888 23.1335C11.9344 23.242 12.4999 23.1863 13.0138 22.9734C13.5277 22.7605 13.967 22.4001 14.276 21.9375C14.5851 21.475 14.75 20.9313 14.75 20.375C14.75 20.0057 14.6773 19.6399 14.5359 19.2987C14.3946 18.9575 14.1874 18.6474 13.9262 18.3863C13.6651 18.1251 13.355 17.9179 13.0138 17.7766C12.6726 17.6352 12.3068 17.5625 11.9375 17.5625ZM11.9375 22.0625C11.6037 22.0625 11.2775 21.9635 11 21.7781C10.7225 21.5927 10.5062 21.3291 10.3785 21.0208C10.2507 20.7124 10.2173 20.3731 10.2824 20.0458C10.3475 19.7184 10.5083 19.4178 10.7443 19.1818C10.9803 18.9458 11.2809 18.785 11.6083 18.7199C11.9356 18.6548 12.2749 18.6882 12.5833 18.816C12.8916 18.9437 13.1552 19.16 13.3406 19.4375C13.526 19.715 13.625 20.0412 13.625 20.375C13.625 20.8226 13.4472 21.2518 13.1307 21.5682C12.8143 21.8847 12.3851 22.0625 11.9375 22.0625ZM21.5 16.4375H18.6875C18.6136 16.4376 18.5404 16.4231 18.4721 16.3948C18.4039 16.3666 18.3418 16.3252 18.2895 16.273L16.4375 14.4202L14.9827 15.875L17.398 18.2895C17.4502 18.3418 17.4916 18.4039 17.5198 18.4721C17.5481 18.5404 17.5626 18.6136 17.5625 18.6875V22.0625C17.5625 22.2117 17.5032 22.3548 17.3977 22.4602C17.2923 22.5657 17.1492 22.625 17 22.625C16.8508 22.625 16.7077 22.5657 16.6023 22.4602C16.4968 22.3548 16.4375 22.2117 16.4375 22.0625V18.9202L13.7895 16.273C13.7372 16.2207 13.6957 16.1587 13.6674 16.0904C13.6391 16.0221 13.6246 15.9489 13.6246 15.875C13.6246 15.8011 13.6391 15.7279 13.6674 15.6596C13.6957 15.5913 13.7372 15.5293 13.7895 15.477L16.0395 13.227C16.0918 13.1747 16.1538 13.1332 16.2221 13.1049C16.2904 13.0766 16.3636 13.0621 16.4375 13.0621C16.5114 13.0621 16.5846 13.0766 16.6529 13.1049C16.7212 13.1332 16.7832 13.1747 16.8355 13.227L18.9202 15.3125H21.5C21.6492 15.3125 21.7923 15.3718 21.8977 15.4773C22.0032 15.5827 22.0625 15.7258 22.0625 15.875C22.0625 16.0242 22.0032 16.1673 21.8977 16.2727C21.7923 16.3782 21.6492 16.4375 21.5 16.4375Z" fill="#212738"/></svg>