<svg width="34" height="34" viewBox="0 0 34 34" fill="none" xmlns="http://www.w3.org/2000/svg"><rect width="34" height="34" rx="17" fill="#FFF080"/><path fill-rule="evenodd" clip-rule="evenodd" d="M17 10.25C16.3787 10.25 15.875 10.7537 15.875 11.375C15.875 11.9963 16.3787 12.5 17 12.5C17.6213 12.5 18.125 11.9963 18.125 11.375C18.125 10.7537 17.6213 10.25 17 10.25ZM14.75 11.375C14.75 10.1324 15.7574 9.125 17 9.125C18.2426 9.125 19.25 10.1324 19.25 11.375C19.25 12.6176 18.2426 13.625 17 13.625C15.7574 13.625 14.75 12.6176 14.75 11.375Z" fill="#212738"/><path fill-rule="evenodd" clip-rule="evenodd" d="M17 14.75C17.3107 14.75 17.5625 15.0018 17.5625 15.3125V18.6875C17.5625 18.9982 17.3107 19.25 17 19.25C16.6893 19.25 16.4375 18.9982 16.4375 18.6875V15.3125C16.4375 15.0018 16.6893 14.75 17 14.75Z" fill="#212738"/><path fill-rule="evenodd" clip-rule="evenodd" d="M17 19.8125C17.1642 19.8125 17.3202 19.8843 17.4271 20.0089L20.8021 23.9464C21.0043 24.1823 20.9769 24.5374 20.7411 24.7396C20.5052 24.9418 20.1501 24.9144 19.9479 24.6786L17 21.2393L14.0521 24.6786C13.8499 24.9144 13.4948 24.9418 13.2589 24.7396C13.0231 24.5374 12.9957 24.1823 13.1979 23.9464L16.5729 20.0089C16.6798 19.8843 16.8358 19.8125 17 19.8125Z" fill="#212738"/><path fill-rule="evenodd" clip-rule="evenodd" d="M13.0548 18.7806C13.0034 19.0867 12.7138 19.2934 12.4075 19.2423C12.1011 19.1913 11.8941 18.9015 11.9452 18.595L12.5 18.6875C11.9452 18.595 11.9452 18.5947 11.9453 18.5944L11.9454 18.5936L11.9457 18.5919L11.9464 18.5876L11.9487 18.5752C11.9505 18.5654 11.953 18.5524 11.9563 18.5363C11.9629 18.5043 11.9726 18.4603 11.9862 18.4061C12.0133 18.2976 12.056 18.1474 12.1204 17.9691C12.2486 17.6139 12.4658 17.1393 12.8234 16.6625C13.5537 15.6889 14.84 14.75 17 14.75C19.16 14.75 20.4463 15.6889 21.1766 16.6625C21.5342 17.1393 21.7514 17.6139 21.8796 17.9691C21.944 18.1474 21.9867 18.2976 22.0138 18.4061C22.0274 18.4603 22.0371 18.5043 22.0437 18.5363C22.047 18.5524 22.0495 18.5654 22.0513 18.5752L22.0536 18.5876L22.0543 18.5919L22.0546 18.5936L22.0547 18.5944C22.0548 18.5947 22.0548 18.595 21.511 18.6857L22.0548 18.595C22.1059 18.9015 21.8989 19.1913 21.5925 19.2423C21.2868 19.2933 20.9977 19.0874 20.9455 18.7822C20.9455 18.7822 20.9456 18.7824 20.9455 18.7822L20.9453 18.7811C20.9453 18.7808 20.9452 18.78 21.5 18.6875L20.9452 18.78C20.9446 18.777 20.9435 18.7716 20.9417 18.7629C20.9382 18.7454 20.9319 18.7169 20.9224 18.6789C20.9034 18.6028 20.8714 18.4894 20.8215 18.3512C20.7213 18.0736 20.5518 17.7044 20.2766 17.3375C19.7412 16.6236 18.7775 15.875 17 15.875C15.2225 15.875 14.2588 16.6236 13.7234 17.3375C13.4482 17.7044 13.2787 18.0736 13.1785 18.3512C13.1286 18.4894 13.0966 18.6028 13.0776 18.6789C13.0681 18.7169 13.0618 18.7454 13.0583 18.7629C13.0565 18.7716 13.0553 18.7776 13.0548 18.7806C13.0546 18.7814 13.0545 18.7819 13.0545 18.7822L13.0548 18.7806Z" fill="#212738"/><path fill-rule="evenodd" clip-rule="evenodd" d="M8 18.6875C8 18.3768 8.25184 18.125 8.5625 18.125L25.4375 18.125C25.7482 18.125 26 18.3768 26 18.6875C26 18.9982 25.7482 19.25 25.4375 19.25L8.5625 19.25C8.25184 19.25 8 18.9982 8 18.6875Z" fill="#212738"/><path fill-rule="evenodd" clip-rule="evenodd" d="M10.25 15.875L10.25 21.5C10.25 21.8107 9.99816 22.0625 9.6875 22.0625C9.37684 22.0625 9.125 21.8107 9.125 21.5L9.125 15.875C9.125 15.5643 9.37684 15.3125 9.6875 15.3125C9.99816 15.3125 10.25 15.5643 10.25 15.875Z" fill="#212738"/><path fill-rule="evenodd" clip-rule="evenodd" d="M24.875 15.875L24.875 21.5C24.875 21.8107 24.6232 22.0625 24.3125 22.0625C24.0018 22.0625 23.75 21.8107 23.75 21.5L23.75 15.875C23.75 15.5643 24.0018 15.3125 24.3125 15.3125C24.6232 15.3125 24.875 15.5643 24.875 15.875Z" fill="#212738"/></svg>