<svg width="34" height="34" viewBox="0 0 34 34" fill="none" xmlns="http://www.w3.org/2000/svg"><rect width="34" height="34" rx="17" fill="#CEE9FF"/><path fill-rule="evenodd" clip-rule="evenodd" d="M17.8438 9.6875C18.6204 9.6875 19.25 10.3171 19.25 11.0938C19.25 11.8704 18.6204 12.5 17.8438 12.5C17.0671 12.5 16.4375 11.8704 16.4375 11.0938C16.4375 10.3171 17.0671 9.6875 17.8438 9.6875ZM20.375 11.0938C20.375 9.69578 19.2417 8.5625 17.8438 8.5625C16.4458 8.5625 15.3125 9.69578 15.3125 11.0938C15.3125 12.4917 16.4458 13.625 17.8438 13.625C19.2417 13.625 20.375 12.4917 20.375 11.0938Z" fill="#212738"/><path fill-rule="evenodd" clip-rule="evenodd" d="M14.28 20.9298C13.9736 20.9809 13.6837 20.7739 13.6327 20.4675L13.0702 17.0925C13.0367 16.8915 13.1145 16.6881 13.2736 16.5608L16.0861 14.3108C16.3287 14.1167 16.6827 14.156 16.8768 14.3986C17.0708 14.6412 17.0315 14.9952 16.7889 15.1892L14.2341 17.2331L14.7424 20.2825C14.7934 20.589 14.5864 20.8788 14.28 20.9298Z" fill="#212738"/><path fill-rule="evenodd" clip-rule="evenodd" d="M21.5698 25.4332C21.2615 25.4717 20.9804 25.253 20.9419 24.9448L20.4336 20.8789L16.3677 20.3707C16.0595 20.3321 15.8408 20.051 15.8794 19.7427C15.9179 19.4345 16.199 19.2158 16.5073 19.2543L21.0073 19.8168C21.2626 19.8488 21.4638 20.0499 21.4957 20.3052L22.0582 24.8052C22.0967 25.1135 21.8781 25.3946 21.5698 25.4332Z" fill="#212738"/><path fill-rule="evenodd" clip-rule="evenodd" d="M16.4375 14.1875C16.1269 14.1875 15.875 14.4393 15.875 14.75V19.7795L15.3712 24.0616L11.3399 24.3136C11.0299 24.333 10.7942 24.6 10.8136 24.9101C10.833 25.2201 11.1001 25.4558 11.4101 25.4364L15.9101 25.1552C16.1815 25.1382 16.4019 24.9295 16.4337 24.6595L16.9962 19.8782C16.9987 19.8564 17 19.8345 17 19.8125V14.75C17 14.4393 16.7482 14.1875 16.4375 14.1875Z" fill="#212738"/></svg>