<svg width="34" height="34" viewBox="0 0 34 34" fill="none" xmlns="http://www.w3.org/2000/svg"><rect width="34" height="34" rx="17" fill="#FFF080"/><g clip-path="url(#clip0_2111_2186)"><path fill-rule="evenodd" clip-rule="evenodd" d="M24.875 14.4687C24.875 15.2454 24.2454 15.875 23.4688 15.875C22.6921 15.875 22.0625 15.2454 22.0625 14.4687C22.0625 13.6921 22.6921 13.0625 23.4688 13.0625C24.2454 13.0625 24.875 13.6921 24.875 14.4687ZM23.4688 17C24.8668 17 26 15.8667 26 14.4687C26 13.0708 24.8668 11.9375 23.4688 11.9375C22.0708 11.9375 20.9375 13.0708 20.9375 14.4687C20.9375 15.8667 22.0708 17 23.4688 17Z" fill="#212738"/><path fill-rule="evenodd" clip-rule="evenodd" d="M19.128 14.2009C19.4313 14.1335 19.7318 14.3247 19.7992 14.628L20.9242 19.6905C20.9915 19.9937 20.8003 20.2942 20.4971 20.3616C20.1938 20.429 19.8933 20.2378 19.8259 19.9345L18.7009 14.872C18.6336 14.5688 18.8248 14.2683 19.128 14.2009Z" fill="#212738"/><path fill-rule="evenodd" clip-rule="evenodd" d="M8.10173 20.1351C7.92358 19.8806 7.98547 19.5298 8.23998 19.3517L13.865 15.4142C14.1195 15.236 14.4702 15.2979 14.6484 15.5524C14.8265 15.8069 14.7646 16.1577 14.5101 16.3358L8.88512 20.2733C8.63062 20.4515 8.27988 20.3896 8.10173 20.1351Z" fill="#212738"/><path fill-rule="evenodd" clip-rule="evenodd" d="M19.7994 14.6377C19.7325 14.3343 19.4323 14.1426 19.129 14.2095L14.0664 15.3257C13.9033 15.3617 13.7646 15.4683 13.6879 15.6167C13.6112 15.7651 13.6044 15.9399 13.6693 16.0938L15.027 19.3099L11.9376 19.3099C11.6269 19.3099 11.3751 19.5617 11.375 19.8724C11.375 20.183 11.6269 20.4349 11.9375 20.4349L15.8751 20.4349C16.0636 20.4349 16.2396 20.3404 16.3438 20.1833C16.448 20.0262 16.4666 19.8273 16.3933 19.6536L14.9686 16.2788L19.3712 15.3081C19.6746 15.2412 19.8663 14.941 19.7994 14.6377Z" fill="#212738"/></g><defs><clipPath id="clip0_2111_2186"><rect width="18" height="18" fill="white" transform="translate(8 8)"/></clipPath></defs></svg>