<svg width="34" height="34" viewBox="0 0 34 34" fill="none" xmlns="http://www.w3.org/2000/svg"><rect width="34" height="34" rx="17" fill="#FFF080"/><path fill-rule="evenodd" clip-rule="evenodd" d="M12.2188 11.9375C13.3061 11.9375 14.1875 12.8189 14.1875 13.9062C14.1875 14.9936 13.3061 15.875 12.2188 15.875C11.1314 15.875 10.25 14.9936 10.25 13.9062C10.25 12.8189 11.1314 11.9375 12.2188 11.9375ZM15.3125 13.9062C15.3125 12.1976 13.9274 10.8125 12.2188 10.8125C10.5101 10.8125 9.125 12.1976 9.125 13.9062C9.125 15.6149 10.5101 17 12.2188 17C13.9274 17 15.3125 15.6149 15.3125 13.9062Z" fill="#212738"/><path fill-rule="evenodd" clip-rule="evenodd" d="M16.0289 14.9259C15.894 15.0685 15.8432 15.2711 15.8948 15.4605L17.3885 20.9375H11.9375C11.6268 20.9375 11.375 21.1893 11.375 21.5C11.375 21.8107 11.6268 22.0625 11.9375 22.0625H18.125C18.3003 22.0625 18.4656 21.9808 18.572 21.8414C18.6784 21.7021 18.7138 21.5211 18.6677 21.352L17.2234 16.0562L24.1946 17.55C24.4984 17.6151 24.7974 17.4216 24.8625 17.1179C24.9276 16.8141 24.7341 16.5151 24.4304 16.45L16.5554 14.7625C16.3634 14.7214 16.1639 14.7833 16.0289 14.9259Z" fill="#212738"/></svg>