<svg width="34" height="34" viewBox="0 0 34 34" fill="none" xmlns="http://www.w3.org/2000/svg"><rect width="34" height="34" rx="17" fill="#CEE9FF"/><path fill-rule="evenodd" clip-rule="evenodd" d="M17 10.25C18.2426 10.25 19.25 11.2574 19.25 12.5C19.25 13.7426 18.2426 14.75 17 14.75C15.7574 14.75 14.75 13.7426 14.75 12.5C14.75 11.2574 15.7574 10.25 17 10.25ZM20.375 12.5C20.375 10.636 18.864 9.125 17 9.125C15.136 9.125 13.625 10.636 13.625 12.5C13.625 14.364 15.136 15.875 17 15.875C18.864 15.875 20.375 14.364 20.375 12.5Z" fill="#212738"/><path fill-rule="evenodd" clip-rule="evenodd" d="M26 17C26 17.3107 25.7482 17.5625 25.4375 17.5625H8.5625C8.25184 17.5625 8 17.3107 8 17C8 16.6893 8.25184 16.4375 8.5625 16.4375H25.4375C25.7482 16.4375 26 16.6893 26 17Z" fill="#212738"/><path fill-rule="evenodd" clip-rule="evenodd" d="M17 24.875C16.6893 24.875 16.4375 24.6232 16.4375 24.3125V18.6875C16.4375 18.3768 16.6893 18.125 17 18.125C17.3107 18.125 17.5625 18.3768 17.5625 18.6875V24.3125C17.5625 24.6232 17.3107 24.875 17 24.875Z" fill="#212738"/><path fill-rule="evenodd" clip-rule="evenodd" d="M22.625 16.4375C22.3143 16.4375 22.0625 16.6893 22.0625 17V20.0636L17.233 17.8661C17.085 17.7988 16.915 17.7988 16.767 17.8661L11.9375 20.0636V17C11.9375 16.6893 11.6857 16.4375 11.375 16.4375C11.0643 16.4375 10.8125 16.6893 10.8125 17V20.9375C10.8125 21.1288 10.9097 21.307 11.0706 21.4105C11.2314 21.514 11.4338 21.5287 11.608 21.4495L17 18.9961L22.392 21.4495C22.5662 21.5287 22.7686 21.514 22.9294 21.4105C23.0903 21.307 23.1875 21.1288 23.1875 20.9375V17C23.1875 16.6893 22.9357 16.4375 22.625 16.4375Z" fill="#212738"/></svg>