<svg width="34" height="34" viewBox="0 0 34 34" fill="none" xmlns="http://www.w3.org/2000/svg"><rect width="34" height="34" rx="17" fill="#DAF17E"/><path d="M18.6876 14.1875C19.1326 14.1875 19.5676 14.0555 19.9377 13.8083C20.3077 13.5611 20.5961 13.2097 20.7664 12.7985C20.9366 12.3874 20.9812 11.935 20.8944 11.4985C20.8076 11.0621 20.5933 10.6612 20.2786 10.3465C19.9639 10.0318 19.563 9.81755 19.1266 9.73073C18.6901 9.64392 18.2377 9.68847 17.8266 9.85877C17.4155 10.0291 17.064 10.3175 16.8168 10.6875C16.5696 11.0575 16.4376 11.4925 16.4376 11.9375C16.4376 12.5342 16.6747 13.1065 17.0966 13.5285C17.5186 13.9504 18.0909 14.1875 18.6876 14.1875ZM18.6876 10.8125C18.9101 10.8125 19.1276 10.8785 19.3126 11.0021C19.4976 11.1257 19.6418 11.3014 19.727 11.507C19.8121 11.7125 19.8344 11.9387 19.791 12.157C19.7476 12.3752 19.6405 12.5757 19.4831 12.733C19.3258 12.8903 19.1253 12.9975 18.9071 13.0409C18.6889 13.0843 18.4627 13.062 18.2571 12.9769C18.0515 12.8917 17.8758 12.7475 17.7522 12.5625C17.6286 12.3775 17.5626 12.16 17.5626 11.9375C17.5626 11.6391 17.6811 11.353 17.8921 11.142C18.1031 10.931 18.3893 10.8125 18.6876 10.8125ZM23.4204 17.8916C23.3775 17.9113 22.8937 18.1222 22.0373 18.1222C21.0635 18.1222 19.608 17.8494 17.77 16.7159C17.4903 17.5101 17.1271 18.2723 16.6865 18.9898C17.4779 19.2334 18.2222 19.6093 18.888 20.1015C20.2289 21.1238 20.9376 22.5793 20.9376 24.3125C20.9376 24.4617 20.8784 24.6048 20.7729 24.7102C20.6674 24.8157 20.5243 24.875 20.3751 24.875C20.2259 24.875 20.0829 24.8157 19.9774 24.7102C19.8719 24.6048 19.8126 24.4617 19.8126 24.3125C19.8126 21.3805 17.3735 20.3251 16.0059 19.9637C15.9672 20.0129 15.9272 20.0628 15.8871 20.1113C14.5061 21.7848 12.7757 22.6552 10.8506 22.6552C10.6313 22.6563 10.4121 22.6462 10.1939 22.625C10.0447 22.6101 9.90754 22.5365 9.8126 22.4205C9.71766 22.3044 9.6727 22.1554 9.68762 22.0063C9.70254 21.8571 9.77611 21.7199 9.89215 21.625C10.0082 21.53 10.1572 21.4851 10.3064 21.5C12.1289 21.6814 13.7144 20.9734 15.0173 19.3906C15.8955 18.3261 16.4939 17.0274 16.7927 16.0859C14.0561 14.4934 12.3082 15.849 12.2892 15.8638C12.2319 15.9127 12.1653 15.9496 12.0935 15.9723C12.0217 15.995 11.946 16.0031 11.871 15.996C11.796 15.9889 11.7231 15.9668 11.6568 15.931C11.5905 15.8953 11.5321 15.8465 11.485 15.7877C11.4378 15.7289 11.403 15.6613 11.3826 15.5887C11.3621 15.5162 11.3564 15.4403 11.3658 15.3656C11.3753 15.2908 11.3996 15.2187 11.4375 15.1536C11.4753 15.0884 11.5258 15.0315 11.5861 14.9863C11.6915 14.9019 14.2031 12.9472 17.8797 15.4482C21.0768 17.6216 22.9373 16.8763 22.9549 16.8678C23.0223 16.836 23.0953 16.8179 23.1698 16.8145C23.2442 16.8112 23.3186 16.8226 23.3886 16.8483C23.4586 16.8739 23.5227 16.9132 23.5774 16.9638C23.6321 17.0145 23.6761 17.0755 23.707 17.1433C23.7379 17.2112 23.755 17.2845 23.7573 17.3589C23.7596 17.4334 23.7471 17.5076 23.7205 17.5773C23.6939 17.6469 23.6537 17.7105 23.6023 17.7645C23.5509 17.8184 23.4893 17.8616 23.4211 17.8916H23.4204Z" fill="#212738"/></svg>