<svg width="34" height="34" viewBox="0 0 34 34" fill="none" xmlns="http://www.w3.org/2000/svg"><rect width="34" height="34" rx="17" fill="#FFF080"/><g clip-path="url(#clip0_46_1041)"><path d="M25.4375 16.4375H24.875V14.1875C24.875 13.8891 24.7565 13.603 24.5455 13.392C24.3345 13.181 24.0484 13.0625 23.75 13.0625H22.625V12.5C22.625 12.2016 22.5065 11.9155 22.2955 11.7045C22.0845 11.4935 21.7984 11.375 21.5 11.375H19.8125C19.5141 11.375 19.228 11.4935 19.017 11.7045C18.806 11.9155 18.6875 12.2016 18.6875 12.5V16.4375H15.3125V12.5C15.3125 12.2016 15.194 11.9155 14.983 11.7045C14.772 11.4935 14.4859 11.375 14.1875 11.375H12.5C12.2016 11.375 11.9155 11.4935 11.7045 11.7045C11.4935 11.9155 11.375 12.2016 11.375 12.5V13.0625H10.25C9.95163 13.0625 9.66548 13.181 9.4545 13.392C9.24353 13.603 9.125 13.8891 9.125 14.1875V16.4375H8.5625C8.41332 16.4375 8.27024 16.4968 8.16475 16.6023C8.05926 16.7077 8 16.8508 8 17C8 17.1492 8.05926 17.2923 8.16475 17.3977C8.27024 17.5032 8.41332 17.5625 8.5625 17.5625H9.125V19.8125C9.125 20.1109 9.24353 20.397 9.4545 20.608C9.66548 20.819 9.95163 20.9375 10.25 20.9375H11.375V21.5C11.375 21.7984 11.4935 22.0845 11.7045 22.2955C11.9155 22.5065 12.2016 22.625 12.5 22.625H14.1875C14.4859 22.625 14.772 22.5065 14.983 22.2955C15.194 22.0845 15.3125 21.7984 15.3125 21.5V17.5625H18.6875V21.5C18.6875 21.7984 18.806 22.0845 19.017 22.2955C19.228 22.5065 19.5141 22.625 19.8125 22.625H21.5C21.7984 22.625 22.0845 22.5065 22.2955 22.2955C22.5065 22.0845 22.625 21.7984 22.625 21.5V20.9375H23.75C24.0484 20.9375 24.3345 20.819 24.5455 20.608C24.7565 20.397 24.875 20.1109 24.875 19.8125V17.5625H25.4375C25.5867 17.5625 25.7298 17.5032 25.8352 17.3977C25.9407 17.2923 26 17.1492 26 17C26 16.8508 25.9407 16.7077 25.8352 16.6023C25.7298 16.4968 25.5867 16.4375 25.4375 16.4375ZM10.25 19.8125V14.1875H11.375V19.8125H10.25ZM14.1875 21.5H12.5V12.5H14.1875V21.5ZM21.5 21.5H19.8125V12.5H21.5V20.3623C21.5 20.3666 21.5 20.3708 21.5 20.375C21.5 20.3792 21.5 20.3834 21.5 20.3877V21.5ZM23.75 19.8125H22.625V14.1875H23.75V19.8125Z" fill="#212738"/></g><defs><clipPath id="clip0_46_1041"><rect width="18" height="18" fill="white" transform="translate(8 8)"/></clipPath></defs></svg>