<svg width="34" height="34" viewBox="0 0 34 34" fill="none" xmlns="http://www.w3.org/2000/svg"><rect width="34" height="34" rx="17" fill="#CEE9FF"/><path fill-rule="evenodd" clip-rule="evenodd" d="M15.875 9.6875C16.4963 9.6875 17 10.1912 17 10.8125C17 11.4338 16.4963 11.9375 15.875 11.9375C15.2537 11.9375 14.75 11.4338 14.75 10.8125C14.75 10.1912 15.2537 9.6875 15.875 9.6875ZM18.125 10.8125C18.125 9.56986 17.1176 8.5625 15.875 8.5625C14.6324 8.5625 13.625 9.56986 13.625 10.8125C13.625 12.0551 14.6324 13.0625 15.875 13.0625C17.1176 13.0625 18.125 12.0551 18.125 10.8125Z" fill="#212738"/><path fill-rule="evenodd" clip-rule="evenodd" d="M21.5 14.75C21.5 15.0607 21.2482 15.3125 20.9375 15.3125H14.75C14.4393 15.3125 14.1875 15.0607 14.1875 14.75C14.1875 14.4393 14.4393 14.1875 14.75 14.1875H20.9375C21.2482 14.1875 21.5 14.4393 21.5 14.75Z" fill="#212738"/><path fill-rule="evenodd" clip-rule="evenodd" d="M14.872 14.2009C14.5688 14.1335 14.2683 14.3247 14.2009 14.628L13.0759 19.6905C13.0389 19.857 13.0795 20.0314 13.1862 20.1645C13.293 20.2976 13.4544 20.375 13.625 20.375H17.9863L17.0134 24.753C16.946 25.0562 17.1372 25.3567 17.4405 25.4241C17.7437 25.4915 18.0442 25.3003 18.1116 24.997L19.2366 19.9345C19.2736 19.768 19.233 19.5936 19.1263 19.4605C19.0195 19.3274 18.8581 19.25 18.6875 19.25H14.3262L15.2991 14.872C15.3665 14.5688 15.1753 14.2683 14.872 14.2009Z" fill="#212738"/></svg>