<svg width="34" height="34" viewBox="0 0 34 34" fill="none" xmlns="http://www.w3.org/2000/svg"><rect width="34" height="34" rx="17" fill="#DAF17E"/><path fill-rule="evenodd" clip-rule="evenodd" d="M17.2393 14.8034C17.2955 14.8298 17.3478 14.8656 17.3935 14.9105C17.4248 14.9411 17.452 14.9748 17.4748 15.0109C18.489 16.5229 20.5048 17.5127 22.4884 17.0168C22.7898 16.9414 23.0952 17.1247 23.1706 17.4261C23.2459 17.7275 23.0627 18.0329 22.7613 18.1082C20.8243 18.5925 18.9065 17.9572 17.5624 16.7895V19.2584C18.9591 19.3012 19.9965 19.5063 20.7209 19.8369C21.549 20.2148 22.0624 20.8129 22.0624 21.5703C22.0624 22.2701 21.616 22.8887 21.0668 23.3343C20.5012 23.7931 19.7384 24.1463 18.9035 24.3029C18.5982 24.3601 18.3043 24.159 18.247 23.8537C18.1898 23.5483 18.3909 23.2544 18.6962 23.1971C19.3614 23.0724 19.9485 22.7928 20.358 22.4606C20.7838 22.1152 20.9374 21.7846 20.9374 21.5703C20.9374 21.4137 20.8508 21.1328 20.2538 20.8604C19.6474 20.5836 18.6154 20.375 16.9999 20.375C15.3844 20.375 14.3524 20.5836 13.7459 20.8604C13.149 21.1328 13.0624 21.4137 13.0624 21.5703C13.0624 21.7846 13.216 22.1152 13.6418 22.4606C14.0512 22.7928 14.6384 23.0724 15.3035 23.1971C15.6089 23.2544 15.81 23.5483 15.7527 23.8537C15.6955 24.159 15.4016 24.3601 15.0962 24.3029C14.2614 24.1463 13.4985 23.7931 12.933 23.3343C12.3838 22.8887 11.9374 22.2701 11.9374 21.5703C11.9374 20.8129 12.4508 20.2148 13.2788 19.8369C14.0033 19.5063 15.0407 19.3012 16.4374 19.2584V16.7895C15.0933 17.9572 13.1755 18.5925 11.2385 18.1082C10.9371 18.0329 10.7538 17.7275 10.8292 17.4261C10.9045 17.1247 11.2099 16.9414 11.5113 17.0168C13.495 17.5127 15.5107 16.5229 16.5249 15.0109C16.5475 14.9752 16.5744 14.9418 16.6053 14.9115C16.6513 14.8662 16.7039 14.83 16.7605 14.8034C16.837 14.7673 16.9188 14.7499 16.9999 14.7499C17.081 14.7499 17.1627 14.7673 17.2393 14.8034Z" fill="#212738"/><path fill-rule="evenodd" clip-rule="evenodd" d="M16.9999 13.0625C17.6212 13.0625 18.1249 12.5588 18.1249 11.9375C18.1249 11.3162 17.6212 10.8125 16.9999 10.8125C16.3786 10.8125 15.8749 11.3162 15.8749 11.9375C15.8749 12.5588 16.3786 13.0625 16.9999 13.0625ZM16.9999 14.1875C18.2425 14.1875 19.2499 13.1801 19.2499 11.9375C19.2499 10.6949 18.2425 9.6875 16.9999 9.6875C15.7572 9.6875 14.7499 10.6949 14.7499 11.9375C14.7499 13.1801 15.7572 14.1875 16.9999 14.1875Z" fill="#212738"/></svg>