<svg width="127" height="117" viewBox="0 0 127 117" fill="none" xmlns="http://www.w3.org/2000/svg">
<rect width="126.523" height="116.991" rx="58.4953" fill="#73BC31"/>
<path d="M91.9173 46.0929C89.2081 42.9487 84.9454 41.1424 78.8788 40.5676C78.3872 40.5233 77.8687 40.4967 77.3358 40.4967C71.9564 40.4967 66.5976 42.7255 63.2626 46.2664C59.9249 42.7255 54.5682 40.4967 49.1917 40.4967C48.6591 40.4967 48.1434 40.5235 47.6422 40.5676C41.5849 41.1424 37.323 42.9496 34.6121 46.092C31.9242 49.2071 31.0479 53.4304 32.0098 58.6436C32.3691 60.5782 33.3632 62.6208 34.7913 64.7132H43.7501L44.6939 51.4539C44.7684 50.4077 45.6732 49.5555 46.8503 49.4227C48.0278 49.2899 49.1458 49.9136 49.5159 50.9096L56.6388 70.084L60.5923 56.2285C60.8684 55.2611 61.851 54.5814 62.9805 54.5767C62.9845 54.5767 62.9885 54.5767 62.9925 54.5767C64.117 54.5767 65.101 55.2466 65.3865 56.2082L67.9082 64.7018L70.1947 61.4121C70.5809 60.8559 71.2284 60.4812 71.9602 60.3907C72.6921 60.3001 73.4311 60.5028 73.9762 60.9437L76.5903 63.0588H81.2395C82.6063 63.0588 83.7146 64.0375 83.7146 65.2448C83.7146 66.4522 82.6063 67.4308 81.2395 67.4308H75.6279C75.0092 67.4308 74.4126 67.2258 73.956 66.8565L72.8444 65.9571L69.0947 71.3529C68.5762 72.0992 67.6033 72.5003 66.6228 72.3719C65.6422 72.2436 64.8429 71.611 64.5913 70.764L63.0405 65.5411L59.351 78.47C59.0817 79.4137 58.1387 80.0864 57.0377 80.1205C57.0084 80.1215 56.9792 80.1219 56.9501 80.1219C55.8843 80.1219 54.9334 79.5176 54.599 78.6174L48.8263 63.0778L48.5444 67.0365C48.4623 68.1882 47.3808 69.0853 46.0741 69.0853H38.2929C42.5863 73.8248 48.3513 78.6141 53.413 82.8199L53.6168 82.989C56.0978 85.054 58.2414 86.8349 59.6372 88.162C59.8261 88.3481 61.5271 89.9927 63.3892 89.9927C65.2631 89.9927 66.9273 88.3236 67.0776 88.1637C68.5621 86.7427 70.9693 84.7287 73.3473 82.7427C82.1571 75.3611 93.122 66.1753 94.5119 58.6409C95.4777 53.4313 94.6073 49.2099 91.9173 46.0929Z" fill="white"/>
</svg>
